# xmcd
#
# Track frame offsets:
#	150
#	12246
#	27720
#	38987
#	51679
#	61294
#	74100
#	96037
#	104826
#	119780
#	140649
#	151893
#	165023
#
# Disc length: 2509 seconds
#
# Revision: 1
# Processed by: cddbd v1.5.2PL0 Copyright (c) Steve Scherf et al.
# Submitted via: audiograbber 1.83.01
#
DISCID=c409cb0d
DTITLE=Das Stubalm-Duo - Sehnsucht nach der Heimat
DYEAR=2007
DGENRE=Folklore
TTITLE0=Annemarie
TTITLE1=Was zwei sich einander erzählen
TTITLE2=Ein kleines Edelweiß
TTITLE3=Vor mei`n Dirndl ihr`n Fenster
TTITLE4=Gruß aus Hönigsberg
TTITLE5=I bin a armer Holtabua
TTITLE6=Hirscherljog`n
TTITLE7=Wos steht do drob`m am Almenroan
TTITLE8=Dos Frühjahr bricht heran
TTITLE9=Voitsberglied
TTITLE10=In meinen jungen Jahren
TTITLE11=Ich liebte einst ein Mädchen
TTITLE12=Rußland
EXTD=Volksweisen, Bearbeitung: Kiedl Hans und Pagger Erwin
EXTT0=
EXTT1=
EXTT2=
EXTT3=
EXTT4=Polka/France
EXTT5=
EXTT6=
EXTT7=
EXTT8=
EXTT9=
EXTT10=
EXTT11=
EXTT12=
PLAYORDER=
